<?xml version="1.0" encoding="utf-8"?>
<!-- Generator: Adobe Illustrator 18.0.0, SVG Export Plug-In . SVG Version: 6.00 Build 0)  -->
<!DOCTYPE svg PUBLIC "-//W3C//DTD SVG 1.1//EN" "http://www.w3.org/Graphics/SVG/1.1/DTD/svg11.dtd">
<svg version="1.1" id="Ebene_1" xmlns="http://www.w3.org/2000/svg" xmlns:xlink="http://www.w3.org/1999/xlink" x="0px" y="0px"
	 viewBox="0 0 537 541" enable-background="new 0 0 537 541" xml:space="preserve">
<circle fill="#95C11F" stroke="#000000" stroke-width="7" stroke-miterlimit="10" cx="266.5" cy="261.5" r="248.7"/>
<path fill="#FFFFFF" stroke="#000000" stroke-width="7" stroke-miterlimit="10" d="M439,419H94c-6.6,0-12-5.4-12-12V116
	c0-6.6,5.4-12,12-12h345c6.6,0,12,5.4,12,12v291C451,413.6,445.6,419,439,419z"/>
<rect x="125.9" y="155" fill="none" stroke="#000000" stroke-width="4" stroke-miterlimit="10" width="283.5" height="240.9"/>
<rect x="125.9" y="275.5" fill="none" stroke="#000000" stroke-width="4" stroke-miterlimit="10" width="283.5" height="120.5"/>
<rect x="125.9" y="215.2" fill="none" stroke="#000000" stroke-width="4" stroke-miterlimit="10" width="283.5" height="120.5"/>
<rect x="125.9" y="155" fill="none" stroke="#000000" stroke-width="4" stroke-miterlimit="10" width="141.7" height="240.9"/>
<rect x="196.8" y="155" fill="none" stroke="#000000" stroke-width="4" stroke-miterlimit="10" width="141.7" height="240.9"/>
<g>
	<path d="M104,215.2c0,0-0.2,0.4-0.5,1c-0.3,0.7-0.8,1.8-1.4,2.8c-0.3,0.6-0.6,1.2-1,1.9c-0.4,0.7-0.8,1.3-1.2,2
		c-0.4,0.7-0.9,1.4-1.3,2.2c-0.1,0.2-0.2,0.3-0.4,0.3c-0.1,0-0.2-0.1-0.4-0.2c-0.2-0.2-0.5-0.1-0.8-0.1c-4.1,0-9.6,0-15.1,0
		s-11,0-15.1,0h-0.4c-0.1,0-0.3,0-0.4,0.1c-0.1,0.1-0.2,0.2-0.4,0.1c-0.1,0-0.2-0.2-0.4-0.4c-0.5-0.8-0.9-1.5-1.3-2.2
		c-0.4-0.7-0.8-1.3-1.2-2c-0.4-0.7-0.7-1.3-1-1.8c-0.6-1.1-1.1-2.1-1.4-2.8c-0.3-0.7-0.5-1-0.5-1s0.2-0.4,0.5-1
		c0.3-0.6,0.8-1.7,1.4-2.8c0.3-0.6,0.6-1.2,1-1.8c0.4-0.7,0.8-1.3,1.2-2c0.4-0.7,0.9-1.4,1.3-2.2c0.1-0.2,0.2-0.4,0.4-0.4
		c0.1,0,0.2,0.1,0.4,0.1c0.1,0.1,0.2,0.1,0.4,0.1h0.4c4.1,0,9.6,0,15.1,0s11,0,15.1,0c0.3,0,0.5,0.1,0.8-0.1
		c0.1-0.1,0.2-0.2,0.4-0.2c0.1,0,0.2,0.1,0.4,0.3c0.5,0.8,0.9,1.5,1.3,2.2c0.4,0.7,0.8,1.3,1.2,2c0.4,0.7,0.7,1.3,1,1.9
		c0.6,1.1,1.1,2.2,1.4,2.8C103.8,214.9,104,215.2,104,215.2z"/>
</g>
<g>
	<path d="M103,275.5c0,0-0.2,0.4-0.5,1c-0.3,0.7-0.8,1.8-1.4,2.8c-0.3,0.6-0.6,1.2-1,1.9c-0.4,0.7-0.8,1.3-1.2,2
		c-0.4,0.7-0.9,1.4-1.3,2.2c-0.1,0.2-0.2,0.3-0.4,0.3c-0.1,0-0.2-0.1-0.4-0.2c-0.2-0.2-0.5-0.1-0.8-0.1c-4.1,0-9.6,0-15.1,0
		s-11,0-15.1,0h-0.4c-0.1,0-0.3,0-0.4,0.1c-0.1,0.1-0.2,0.2-0.4,0.1c-0.1,0-0.2-0.2-0.4-0.4c-0.5-0.8-0.9-1.5-1.3-2.2
		c-0.4-0.7-0.8-1.3-1.2-2c-0.4-0.7-0.7-1.3-1-1.8c-0.6-1.1-1.1-2.1-1.4-2.8c-0.3-0.7-0.5-1-0.5-1s0.2-0.4,0.5-1
		c0.3-0.6,0.8-1.7,1.4-2.8c0.3-0.6,0.6-1.2,1-1.8c0.4-0.7,0.8-1.3,1.2-2c0.4-0.7,0.9-1.4,1.3-2.2c0.1-0.2,0.2-0.4,0.4-0.4
		c0.1,0,0.2,0.1,0.4,0.1c0.1,0.1,0.2,0.1,0.4,0.1h0.4c4.1,0,9.6,0,15.1,0s11,0,15.1,0c0.3,0,0.5,0.1,0.8-0.1
		c0.1-0.1,0.2-0.2,0.4-0.2c0.1,0,0.2,0.1,0.4,0.3c0.5,0.8,0.9,1.5,1.3,2.2c0.4,0.7,0.8,1.3,1.2,2c0.4,0.7,0.7,1.3,1,1.9
		c0.6,1.1,1.1,2.2,1.4,2.8C102.8,275.1,103,275.5,103,275.5z"/>
</g>
<g>
	<path d="M103,335.7c0,0-0.2,0.4-0.5,1c-0.3,0.7-0.8,1.8-1.4,2.8c-0.3,0.6-0.6,1.2-1,1.9c-0.4,0.7-0.8,1.3-1.2,2
		c-0.4,0.7-0.9,1.4-1.3,2.2c-0.1,0.2-0.2,0.3-0.4,0.3c-0.1,0-0.2-0.1-0.4-0.2c-0.2-0.2-0.5-0.1-0.8-0.1c-4.1,0-9.6,0-15.1,0
		s-11,0-15.1,0h-0.4c-0.1,0-0.3,0-0.4,0.1c-0.1,0.1-0.2,0.2-0.4,0.1c-0.1,0-0.2-0.2-0.4-0.4c-0.5-0.8-0.9-1.5-1.3-2.2
		c-0.4-0.7-0.8-1.3-1.2-2c-0.4-0.7-0.7-1.3-1-1.8c-0.6-1.1-1.1-2.1-1.4-2.8c-0.3-0.7-0.5-1-0.5-1s0.2-0.4,0.5-1
		c0.3-0.6,0.8-1.7,1.4-2.8c0.3-0.6,0.6-1.2,1-1.8c0.4-0.7,0.8-1.3,1.2-2c0.4-0.7,0.9-1.4,1.3-2.2c0.1-0.2,0.2-0.4,0.4-0.4
		c0.1,0,0.2,0.1,0.4,0.1c0.1,0.1,0.2,0.1,0.4,0.1h0.4c4.1,0,9.6,0,15.1,0s11,0,15.1,0c0.3,0,0.5,0.1,0.8-0.1
		c0.1-0.1,0.2-0.2,0.4-0.2c0.1,0,0.2,0.1,0.4,0.3c0.5,0.8,0.9,1.5,1.3,2.2c0.4,0.7,0.8,1.3,1.2,2c0.4,0.7,0.7,1.3,1,1.9
		c0.6,1.1,1.1,2.2,1.4,2.8C102.8,335.3,103,335.7,103,335.7z"/>
</g>
<g>
	<path d="M103,155c0,0-0.2,0.4-0.5,1c-0.3,0.7-0.8,1.8-1.4,2.8c-0.3,0.6-0.6,1.2-1,1.9c-0.4,0.7-0.8,1.3-1.2,2
		c-0.4,0.7-0.9,1.4-1.3,2.2c-0.1,0.2-0.2,0.3-0.4,0.3c-0.1,0-0.2-0.1-0.4-0.2c-0.2-0.2-0.5-0.1-0.8-0.1c-4.1,0-9.6,0-15.1,0
		s-11,0-15.1,0h-0.4c-0.1,0-0.3,0-0.4,0.1c-0.1,0.1-0.2,0.2-0.4,0.1c-0.1,0-0.2-0.2-0.4-0.4c-0.5-0.8-0.9-1.5-1.3-2.2
		c-0.4-0.7-0.8-1.3-1.2-2c-0.4-0.7-0.7-1.3-1-1.8c-0.6-1.1-1.1-2.1-1.4-2.8c-0.3-0.7-0.5-1-0.5-1s0.2-0.4,0.5-1
		c0.3-0.6,0.8-1.7,1.4-2.8c0.3-0.6,0.6-1.2,1-1.8c0.4-0.7,0.8-1.3,1.2-2c0.4-0.7,0.9-1.4,1.3-2.2c0.1-0.2,0.2-0.4,0.4-0.4
		c0.1,0,0.2,0.1,0.4,0.1c0.1,0.1,0.2,0.1,0.4,0.1h0.4c4.1,0,9.6,0,15.1,0s11,0,15.1,0c0.3,0,0.5,0.1,0.8-0.1
		c0.1-0.1,0.2-0.2,0.4-0.2c0.1,0,0.2,0.1,0.4,0.3c0.5,0.8,0.9,1.5,1.3,2.2c0.4,0.7,0.8,1.3,1.2,2c0.4,0.7,0.7,1.3,1,1.9
		c0.6,1.1,1.1,2.2,1.4,2.8C102.8,154.6,103,155,103,155z"/>
</g>
<line fill="none" stroke="#000000" stroke-width="7" stroke-miterlimit="10" x1="394.6" y1="474.7" x2="363" y2="532"/>
<line fill="none" stroke="#000000" stroke-width="7" stroke-miterlimit="10" x1="330.8" y1="465" x2="395.2" y2="477"/>
</svg>
