<?xml version="1.0" encoding="utf-8"?>
<!-- Generator: Adobe Illustrator 18.0.0, SVG Export Plug-In . SVG Version: 6.00 Build 0)  -->
<!DOCTYPE svg PUBLIC "-//W3C//DTD SVG 1.1//EN" "http://www.w3.org/Graphics/SVG/1.1/DTD/svg11.dtd">
<svg version="1.1" xmlns="http://www.w3.org/2000/svg" xmlns:xlink="http://www.w3.org/1999/xlink" x="0px" y="0px"
	 viewBox="24.4 14.3 58.6 74.8" enable-background="new 24.4 14.3 58.6 74.8" xml:space="preserve">
<g id="Ebene_6">
</g>
<g id="Ebene_4">
	
		<ellipse transform="matrix(2.548021e-002 -0.9997 0.9997 2.548021e-002 8.264 99.3739)" fill="#220224" cx="55.1" cy="45.4" rx="6.6" ry="16.8"/>
	<polygon fill="#F2D319" points="44.6,62.7 45.8,65.9 56.7,70.2 64.5,64.5 66.2,60.2 44.2,61.6 	"/>
	<polyline fill="#F2D319" points="49.6,76.4 51.1,80.6 57.7,81.4 60.6,74.2 49.6,76.4 	"/>
</g>
<g id="Ebene_2">
	<path fill="#E224B6" d="M38.8,46.8c0,0,3.7,4.9,16.9,5s15.7-4.7,15.7-4.7l-5.3,13.1c0,0-2.2,3.2-12.1,2.3c-10-0.9-9.5,0.1-9.5,0.1
		L38.8,46.8z"/>
	<path fill="#E224B6" d="M45.6,65.5c0,0,1.2-1,8,2.2c4.6,2.4,11.3-4.2,11.3-4.2l-4.8,11.9c0,0-4.7,3.8-6.6,2.1c-1.9-1.7-4-1.2-4-1.2
		L45.6,65.5z"/>
	<path fill="#E224B6" d="M51.1,80.6l6.8,0.4c0,0-2.1,5.2-2.8,6.4c-0.9,0-1-1.5-1-1.5s0,1.5-1.2,1.2C52.9,85,51.1,80.6,51.1,80.6z"/>
	<g id="Ebene_5">
	</g>
</g>
<g id="Ebene_3">
	<polygon fill="#8A0691" points="40.7,52 32.9,49.2 44.6,62.7 	"/>
	<polygon fill="#8A0691" points="66.2,60.2 74.8,51.9 68.4,53.9 	"/>
</g>
<g id="Ebene_8">
	<polygon fill="#FEF3FF" points="45.1,52.4 64.9,52.4 55.3,59.2 	"/>
	<polygon fill="#A5EA78" points="41.7,22.4 39.7,21.7 38.1,23 38,21 36.3,19.8 38.3,19.1 38.8,17.2 40.1,18.8 42.1,18.7 40.9,20.4 	
		"/>
	<polygon fill="#A5EA78" points="54.3,26.5 52.6,25.8 51.1,26.9 51.2,25.1 49.8,23.9 51.5,23.5 52.2,21.8 53.1,23.3 55,23.4 
		53.8,24.8 	"/>
	<polygon fill="#6CF4E7" points="62.3,21.8 62.1,21.9 62,22.1 61.8,22 61.6,22 61.7,21.8 61.6,21.6 61.8,21.6 62,21.4 62.1,21.7 	
		"/>
	<polygon fill="#6CF4E7" points="69.9,24.3 68.1,23.3 66.3,24.2 66.7,22.2 65.3,20.7 67.3,20.5 68.3,18.7 69.1,20.6 71.1,20.9 
		69.6,22.3 	"/>
	<polygon fill="#F4EA40" points="73.2,31.9 71.2,29.8 68.4,30.3 69.7,27.7 68.4,25.1 71.2,25.6 73.3,23.6 73.7,26.4 76.2,27.7 
		73.6,29 	"/>
	<polygon fill="#EF7F59" points="74,35.3 73.4,34.7 72.5,34.8 72.9,34 72.5,33.2 73.4,33.4 74,32.8 74.1,33.7 74.9,34.1 74.1,34.4 	
		"/>
	<polygon fill="#A5EA78" points="78.7,37.2 77.1,35.7 74.8,36.2 75.8,34.2 74.6,32.2 76.9,32.5 78.3,30.7 78.8,33 80.9,33.8 
		78.9,35 	"/>
	<polygon fill="#F4EA40" points="59.5,24.3 57.7,23.3 55.9,24.3 56.2,22.2 54.8,20.8 56.8,20.5 57.8,18.7 58.7,20.5 60.7,20.9 
		59.2,22.3 	"/>
	<polygon fill="#EF7F59" points="45.4,26.4 44.2,25.5 42.8,26 43.2,24.5 42.3,23.3 43.9,23.3 44.7,22 45.2,23.5 46.7,24 45.4,24.8 	
		"/>
	<polygon fill="#F4EA40" points="34.5,32.8 31.2,31.8 28.6,33.9 28.5,30.5 25.6,28.6 28.9,27.5 29.8,24.2 31.8,26.9 35.3,26.8 
		33.3,29.6 	"/>
	<polygon fill="#6CF4E7" points="36.5,30.7 35.5,30.6 34.9,31.4 34.7,30.4 33.7,30 34.6,29.5 34.7,28.5 35.5,29.2 36.4,28.9 
		36,29.8 	"/>
	<polygon fill="#F4EA40" points="74.6,42.2 73.8,40.6 72,40.3 73.3,39 73,37.2 74.6,38.1 76.2,37.2 75.9,39 77.2,40.3 75.4,40.6 	
		"/>
	<polygon fill="#EF7F59" points="37.5,43 35.4,41 32.5,41.6 33.8,38.9 32.3,36.4 35.3,36.8 37.2,34.6 37.7,37.5 40.4,38.7 
		37.8,40.1 	"/>
	<polygon fill="#A5EA78" points="39.2,28.5 37.7,28 36.4,29.1 36.4,27.5 35,26.6 36.5,26.1 36.9,24.5 37.9,25.8 39.5,25.6 38.6,27 	
		"/>
</g>
<g id="Ebene_7">
	<ellipse fill="#FFFFFF" stroke="#B5B5B5" stroke-width="0.125" stroke-miterlimit="10" cx="47" cy="37.7" rx="7.4" ry="10"/>
	<ellipse fill="#FFFFFF" stroke="#B5B5B5" stroke-width="0.125" stroke-miterlimit="10" cx="63.1" cy="37.7" rx="7.4" ry="10"/>
</g>
<g id="Ebene_9">
	<ellipse stroke="#000000" stroke-width="0.25" stroke-miterlimit="10" cx="47" cy="37.2" rx="6.9" ry="6.7"/>
	<ellipse stroke="#000000" stroke-width="0.25" stroke-miterlimit="10" cx="63.1" cy="37.2" rx="6.9" ry="6.7"/>
	<ellipse fill="#FFFFFF" stroke="#000000" stroke-width="0.25" stroke-miterlimit="10" cx="47" cy="34.5" rx="2.8" ry="2.7"/>
	<ellipse fill="#FFFFFF" stroke="#000000" stroke-width="0.25" stroke-miterlimit="10" cx="63" cy="34.5" rx="2.8" ry="2.7"/>
</g>
</svg>
