<?xml version="1.0" encoding="utf-8"?>
<!-- Generator: Adobe Illustrator 18.0.0, SVG Export Plug-In . SVG Version: 6.00 Build 0)  -->
<!DOCTYPE svg PUBLIC "-//W3C//DTD SVG 1.1//EN" "http://www.w3.org/Graphics/SVG/1.1/DTD/svg11.dtd">
<svg version="1.1" xmlns="http://www.w3.org/2000/svg" xmlns:xlink="http://www.w3.org/1999/xlink" x="0px" y="0px"
	 viewBox="0 0 224.5 222.5" enable-background="new 0 0 224.5 222.5" xml:space="preserve">
<g id="Ebene_1" display="none">
	<circle display="inline" fill="#FFFFFF" stroke="#000000" stroke-miterlimit="10" cx="113" cy="107" r="112"/>
	<line display="inline" fill="none" stroke="#000000" stroke-miterlimit="10" x1="113" y1="107" x2="61" y2="7.8"/>
	<line display="inline" fill="none" stroke="#000000" stroke-miterlimit="10" x1="113" y1="107" x2="1" y2="80"/>
	<line display="inline" fill="none" stroke="#000000" stroke-miterlimit="10" x1="113" y1="107" x2="158.3" y2="209.4"/>
</g>
<g id="Ebene_3">
	<g>
		<g>
			<g>
				<g>
					<path fill="#E30613" stroke="#F6F6F6" stroke-width="2" stroke-miterlimit="10" d="M112.3,110.8L31.3,42.8
						C51.8,18.5,80.4,5.1,112.3,5.1V110.8z"/>
				</g>
			</g>
			<g>
				<g>
					<path fill="#64B32F" stroke="#F6F6F6" stroke-width="2" stroke-miterlimit="10" d="M112.3,110.8v105.7
						c-58.4,0-105.7-47.3-105.7-105.7c0-26.5,7.7-47.6,24.7-67.9L112.3,110.8z"/>
				</g>
			</g>
			<g>
				<g>
					<path fill="#B065A6" stroke="#F6F6F6" stroke-width="2" stroke-miterlimit="10" d="M112.3,110.8V5.1
						c58.4,0,105.7,47.3,105.7,105.7s-47.3,105.7-105.7,105.7l0,0V110.8z"/>
				</g>
			</g>
		</g>
		<g>
			<g>
			</g>
			<g>
			</g>
			<g>
			</g>
		</g>
	</g>
</g>
<g id="Ebene_2">
	<path fill="#FFFFFF" stroke="#000000" stroke-miterlimit="10" d="M96.8,167.9h-17c-3.1,0-5.7-2.6-5.7-5.7V70.8
		c0-3.1,2.6-5.7,5.7-5.7h17c3.1,0,5.7,2.6,5.7,5.7v91.4C102.5,165.3,99.9,167.9,96.8,167.9z"/>
	<path fill="#FFFFFF" stroke="#000000" stroke-miterlimit="10" d="M138.3,167.9h-17c-3.1,0-5.7-2.6-5.7-5.7V82.8
		c0-3.1,2.6-5.7,5.7-5.7h17c3.1,0,5.7,2.6,5.7,5.7v79.4C144,165.3,141.4,167.9,138.3,167.9z"/>
	<path fill="#FFFFFF" stroke="#000000" stroke-miterlimit="10" d="M181,167.9h-17c-3.1,0-5.7-2.6-5.7-5.7V48.8
		c0-3.1,2.6-5.7,5.7-5.7h17c3.1,0,5.7,2.6,5.7,5.7v113.4C186.7,165.3,184.1,167.9,181,167.9z"/>
	<path fill="#FFFFFF" stroke="#000000" stroke-miterlimit="10" d="M54.3,167.9h-17c-3.1,0-5.7-2.6-5.7-5.7v-61.4
		c0-3.1,2.6-5.7,5.7-5.7h17c3.1,0,5.7,2.6,5.7,5.7v61.4C60,165.3,57.4,167.9,54.3,167.9z"/>
</g>
</svg>
